<svg width="387" height="376" viewBox="0 0 387 376" fill="none" xmlns="http://www.w3.org/2000/svg">
<g clip-path="url(#clip0_1_98)">
<path d="M181.988 24.886L200.429 25.3737L210.748 26.2343L222.639 28.3333L233.91 31.062L249.262 36.2603L258.667 40.2528L267.137 44.5649L275.611 49.5019L279.38 51.9739L283.778 55.0662L292.576 61.5634L295.722 64.3525L298.238 66.5213L308.628 76.7567L311.466 80.1732L315.248 84.5201L319.35 89.8022L321.878 93.5335L324.721 97.575L329.147 104.417L333.894 112.507L336.429 117.176L339.92 124.337L341.83 129.011L347.578 145.531L350.16 156.45L352.116 167.373L353.112 175.178L353.804 184.236L353.909 198.298L353.079 212.679L351.891 221.126L349.48 233.019L346.126 244.295L343.678 251.188L341.847 257.139L336.926 267.801L334.457 271.882L330.14 279.727L325.196 287.264L323.029 290.093L320.868 293.547L317.463 297.947L313.745 302.35L311.577 304.866L309.405 307.07L308.167 308.642L305.371 310.85L301.957 314.001L300.098 316.202L296.682 319.04L293.268 322.19L289.849 324.716L284.564 328.505L281.143 330.718L276.167 333.881L270.565 337.047L263.406 340.851L256.867 344.025L248.143 347.527L236.921 351.361L225.065 353.949L213.829 355.908L206.336 356.901L194.781 357.925L182.906 358.013L175.089 357.447L166.02 356.577L151.627 354.184L140.359 351.768L135.347 350.242L124.065 345.951L115.6 342.264L103.993 336.413L96.7734 332.092L94.2618 330.548L90.1761 327.453L84.521 323.433L75.7154 315.998L70.0487 310.415L67.5325 308.246L62.8079 303.281L59.6527 299.242L55.5507 293.96L52.3956 289.921L51.4488 288.678L49.5482 285.255L45.7541 279.345L41.3187 271.253L38.469 266.274L33.7025 255.684L30.5171 247.583L27.945 237.914L25.6971 229.806L23.75 220.133L22.4279 210.455L21.7424 202.334L21.6376 188.272L22.2067 180.768L23.3752 169.821L24.8679 160.435L27.8927 146.975L30.633 137.266L34.0075 128.804L36.4656 123.16L40.1619 115.945L44.1708 108.727L46.9483 104.019L50.654 98.0537L53.126 94.2852L55.9105 90.5144L58.0746 87.3732L61.4818 83.2852L65.1991 78.8824L70.1594 73.5328L75.7423 67.866L79.1588 65.028L83.8182 61.2432L89.1026 57.4537L94.6972 53.3495L100.296 49.8702L108.076 45.4371L113.99 42.268L120.219 39.409L131.436 34.9503L142.66 31.4291L156.387 28.2018L167 26.5602L175.43 25.5599L181.988 24.886Z" fill="#0F2532"/>
<path d="M186.125 34.9805L197.063 34.8991L204.567 35.4682L207.697 36.0699L208.329 37.0027L208.968 38.873L209.595 39.1808L209.602 40.1183L218.977 40.0485L218.65 38.1759L217.71 37.8703L221.775 38.1526L227.717 38.7333L233.666 40.2516L244.631 43.92L251.527 46.6812L255.918 48.8361L257.177 50.0767L228.43 50.6034L229.38 52.1588L230.042 57.154L230.382 60.9016L230.702 61.8368L230.748 68.0866L230.445 69.3389L277.319 68.9897L286.696 69.2324L288.58 70.4684L291.726 73.2576L295.184 76.0444L300.534 81.0047L303.37 84.1086L305.89 86.9024L306.21 87.8376L246.212 88.2845L247.471 89.5251L249.987 91.6939L251.566 93.8697L253.807 101.041L254.772 104.784L255.101 106.969L320.414 106.795L321.995 109.283L324.532 114.264L328.968 122.357L330.234 124.535L330.243 125.785L302.121 126.307L259.623 126.623L257.12 126.329L258.142 137.572L258.2 145.384L338.198 144.788L339.797 149.777L341.73 157.575L342.707 162.88L342.714 163.818L258.654 164.444L258.689 169.131L258.449 178.821L257.528 181.015L256.924 183.832L333.484 183.262L344.736 183.491L345.366 184.111L345.713 188.796L345.746 193.171L344.195 194.745L342.331 196.322L332.982 199.829L324.258 203.331L318.647 205.248L311.476 207.489L306.495 210.026L299.958 213.513L294.982 216.675L291.563 219.2L281.328 229.589L279.161 232.418L275.752 236.194L271.409 240.601L269.24 243.117L265.208 247.21L261.792 250.048L254.357 258.854L250.635 262.631L248.466 265.148L245.057 268.923L243.506 270.497L243.837 272.995L245.736 276.106L247.937 277.964L250.131 278.886L252.009 279.184L257.321 279.145L260.437 277.871L263.86 275.971L269.144 272.181L273.491 268.399L276.598 265.876L280.32 262.098L282.488 259.582L286.833 255.487L291.182 252.017L295.221 248.861L300.818 245.07L303.927 242.859L308.593 240.012L313.568 236.537L315.744 234.958L316.681 234.951L316.068 236.518L310.494 243.435L307.087 247.523L304.603 249.729L301.816 253.187L299.027 256.333L292.824 262.63L290.34 264.836L287.239 267.984L283.82 270.509L279.165 274.919L273.881 278.709L267.971 282.503L260.817 286.931L259.263 288.193L252.102 291.684L245.563 294.858L234.971 299.312L221.256 304.101L215.025 306.648L211.911 308.234L210.048 309.81L209.125 311.692L209.143 314.192L210.095 316.06L211.354 317.3L214.479 317.277L225.71 314.693L233.508 312.76L244.735 309.552L250.66 307.945L261.88 303.799L269.359 300.93L278.391 296.801L283.684 294.261L288.355 292.039L295.519 288.86L298.325 287.902L299.577 288.205L296.154 290.106L289.932 293.902L284.333 297.381L279.666 300.229L273.752 303.398L265.965 306.893L260.667 308.808L254.744 310.727L241.339 315.202L232.608 317.767L222.002 320.346L211.391 322.3L204.523 323.289L200.47 324.569L199.225 325.204L198.612 326.771L198.001 328.65L198.031 332.713L198.982 334.581L200.554 335.819L202.744 336.115L210.855 334.18L222.083 331.283L230.507 329.346L237.99 327.102L254.513 321.667L262.924 318.166L271.651 314.976L279.75 311.478L283.486 309.575L286.601 308.302L290.65 306.397L291.277 306.705L289.104 308.596L284.435 311.131L279.461 314.606L271.056 319.043L261.397 322.865L255.166 325.412L240.826 330.206L235.835 331.494L229.285 333.105L218.993 335.994L214.943 337.587L215.892 339.142L218.408 341.311L219.035 341.619L223.41 341.586L228.091 340.614L238.694 337.722L256.462 331.652L265.501 328.46L272.045 325.911L272.985 326.217L267.695 329.381L263.647 331.286L261.467 332.24L256.485 334.777L249.944 337.639L239.039 342.095L228.128 345.614L220.019 347.862L218.461 348.498L216.897 348.198L213.762 346.971L210.936 345.117L208.73 342.633L208.413 342.011L205.918 342.654L198.418 342.71L195.594 341.168L193.39 338.997L191.804 335.884L190.834 331.516L191.119 327.764L192.343 324.317L194.817 320.861L198.236 318.336L200.417 317.382L201.667 317.373L201.315 312.063L201.919 309.245L203.458 306.109L207.18 302.331L211.536 299.799L216.209 297.889L224.936 294.699L235.535 291.182L235.53 290.557L233.327 288.386L230.489 284.97L231.1 283.09L231.909 265.896L232.457 255.579L232.74 251.514L233.509 229.008L234.055 218.379L234.893 204.935L235.445 195.243L235.697 187.116L236.281 181.486L236.141 162.737L235.432 151.492L235.339 138.992L236.508 128.045L237.112 125.228L237.734 124.911L238.054 125.846L239.073 136.776L240.119 151.457L240.53 164.579L240.604 174.579L251.541 174.497L250.975 140.438L250.66 140.128L249.609 124.823L248.597 114.83L246.96 104.842L245.353 98.9162L243.504 102.368L242.566 102.375L242.856 99.2473L243.467 97.3677L243.455 95.8052L231.851 90.2665L230.911 89.961L230.629 94.0257L229.381 94.3475L229.067 94.0373L228.418 90.9171L227.143 87.489L224.319 85.9475L224.041 90.6372L221.662 106.905L219.857 116.294L218.336 121.931L216.823 128.504L213.756 136.34L212.819 136.347L210.906 131.361L208.673 125.128L205.154 114.216L202.882 102.983L200.917 90.8094L200.572 86.4368L198.081 87.7054L196.528 88.967L196.875 93.6521L195.621 93.0364L194.672 91.4809L194.667 90.8559L192.172 91.4996L184.697 94.9928L182.207 96.2614L182.533 98.134L183.172 100.004L183.186 101.879L182.246 101.574L180.353 99.0878L178.508 103.164L176.045 108.183L176.691 110.99L177.974 115.356L178.634 120.039L179.921 125.029L181.514 129.08L181.518 129.705L183.074 128.756L185.861 125.297L187.395 121.536L188.022 121.844L189.636 128.707L190.958 138.385L191.667 149.63L191.725 157.442L195.188 160.854L197.086 163.965L198.39 171.143L198.423 175.518L197.21 180.527L195.668 183.351L194.742 184.92L195.997 185.536L197.569 186.774L199.775 189.258L201.673 192.369L205.169 200.156L207.09 206.392L207.426 209.514L206.5 211.084L206.834 213.894L207.477 216.389L207.818 220.137L207.913 232.949L207.316 236.703L206.402 239.835L204.242 243.601L202.381 245.49L200.823 246.127L200.019 263.946L199.457 272.388L199.526 281.763L199.862 284.885L198.628 287.082L198.654 290.519L197.094 290.843L194.578 288.675L192.684 286.189L192.987 284.936L194.235 284.615L194.179 277.115L194.317 253.676L194.821 237.421L194.628 211.485L194.278 206.487L195.533 207.103L195.857 208.663L200.215 206.443L201.151 206.123L200.187 202.693L196.69 194.594L195.426 192.728L192.597 190.562L191.03 189.948L188.236 192.469L184.808 193.745L182.308 193.763L178.861 192.539L176.03 190.06L174.472 190.697L171.361 192.595L169.503 194.796L167.042 200.127L165.515 204.826L165.527 206.389L169.605 208.546L170.858 208.849L170.846 207.287L171.781 206.967L172.438 253.214L173.611 284.768L175.18 285.694L174.877 286.946L171.465 290.409L170.849 291.664L166.477 292.009L165.537 291.703L165.176 285.143L162.916 275.473L162.272 272.977L162.228 267.04L163.408 257.656L164.6 249.834L164.896 247.645L164.866 243.582L162.347 241.101L161.084 239.235L160.127 236.742L159.75 227.995L153.815 228.352L151.938 228.053L153.257 237.418L155.216 248.654L156.545 259.27L156.867 260.517L157.548 268.012L157.268 272.39L156.673 276.457L156.708 281.144L157.706 289.262L158.035 291.447L157.725 291.762L150.225 291.818L149.595 291.197L149.579 289.01L150.498 286.503L150.442 279.003L149.789 275.258L148.826 271.827L148.758 262.765L149.542 242.134L149.44 228.384L141 228.134L137.561 227.848L138.573 237.84L139.566 245.333L142.499 261.562L144.127 270.3L144.169 275.925L142.669 284.374L141.461 290.008L140.54 292.202L143.042 292.496L148.681 294.329L153.693 295.854L159.019 297.69L165.915 300.451L169.366 302.3L172.512 305.089L174.718 307.573L175.989 310.376L176.322 313.186L175.73 317.566L179.177 318.79L182.003 320.644L184.207 322.815L185.795 326.241L186.436 328.424L186.476 333.736L185.561 336.868L183.707 339.694L181.221 341.588L178.418 342.859L169.981 342.922L168.127 345.748L165.954 347.639L162.526 348.915L159.398 348.626L149.69 345.886L136.533 341.608L129.322 338.537L120.545 334.852L116.153 332.697L110.822 330.237L107.054 327.765L107.989 327.446L116.139 330.822L138.695 338.155L145.896 339.976L157.164 342.392L159.349 342.063L161.528 340.797L163.696 338.281L162.439 337.353L143.34 332.495L135.514 330.678L121.729 326.093L114.519 323.022L105.741 319.337L97.8986 315.333L94.4449 313.171L92.8731 311.933L88.4773 309.153L87.5305 307.91L90.3499 308.826L95.3684 311.289L101.012 313.747L109.162 317.124L117.938 320.496L122.639 322.336L138.303 327.532L146.446 329.972L155.838 332.089L165.231 334.519L173.057 336.336L176.184 336.625L178.668 334.419L179.589 332.225L179.571 329.725L178.614 327.232L177.665 325.677L174.841 324.135L169.52 322.925L165.453 322.33L159.511 321.749L149.495 319.636L136.969 316.292L123.812 312.015L117.548 310.186L108.771 306.502L103.44 304.041L97.479 300.961L94.3402 299.109L90.2592 296.639L85.236 293.552L79.8981 290.154L79.8957 289.841L82.398 290.135L92.7451 294.746L97.7636 297.208L108.111 301.819L115.006 304.58L121.275 307.034L129.733 309.783L135.055 310.994L144.136 313.426L160.415 317.367L162.605 317.664L166.98 317.631L169.142 314.177L169.126 311.99L167.862 310.124L165.975 308.576L160.644 306.115L152.496 303.051L142.783 299.686L135.26 296.617L123.029 290.77L117.7 288.622L114.249 286.773L108.598 283.377L103.573 279.977L99.4873 276.883L96.3414 274.093L94.7673 272.543L90.677 268.823L87.2186 266.036L84.3853 263.245L81.869 261.076L78.7208 257.974L76.2046 255.805L74.0009 253.634L71.1629 250.218L67.6952 246.181L64.54 242.142L61.0677 237.48L61.688 236.85L65.4612 239.947L70.7992 243.345L72.6834 244.581L78.0214 247.979L83.0422 250.754L88.0723 254.779L91.2182 257.569L93.1048 259.117L95.3108 261.601L99.0886 265.323L101.605 267.491L105.693 270.899L111.978 275.539L116.373 278.319L120.447 279.851L124.822 279.819L128.563 278.541L131.359 276.333L133.215 273.819L133.831 272.564L133.507 271.004L129.102 266.974L126.896 264.491L123.43 260.766L120.592 257.35L116.183 252.695L113.977 250.211L112.715 248.658L111.143 247.42L108.937 244.936L106.104 242.145L103.266 238.728L96.9693 232.525L94.7632 230.041L90.9854 226.319L88.7794 223.836L84.689 220.116L79.9784 217.026L71.8187 212.399L66.4877 209.939L58.9693 207.495L52.7055 205.666L48.319 204.137L42.0529 201.996L33.59 198.621L32.0206 197.695L30.759 196.142L30.7194 190.83L30.9923 185.515L49.4293 185.378L115.68 185.197L115.605 175.197L116.454 163.315L114.899 164.265L113.656 165.211L112.718 165.218L112.711 164.281L113.336 164.276L113.621 160.524L112.672 158.969L111.1 157.73L111.093 156.793L116.088 156.131L117.252 144.559L118.138 137.677L118.101 132.677L116.849 132.374L114.671 133.64L113.122 135.527L112.183 135.222L113.4 130.837L113.703 129.585L110.247 127.111L110.242 126.486L112.425 125.844L114.3 125.83L115.527 122.696L116.45 120.814L117.395 121.745L118.67 125.173L119.61 125.478L119.904 122.976L120.172 117.037L121.063 110.78L122.595 106.706L124.445 103.254L126.616 101.051L128.468 97.9117L130.007 94.7752L130.615 92.5831L130.581 87.8957L128.715 89.1596L128.09 89.1643L127.766 87.6041L128.997 85.0949L129.3 83.8426L126.157 81.366L126.152 80.741L128.337 80.4122L130.525 80.3959L131.115 75.7039L132.64 70.6924L135.103 65.6739L138.512 61.8984L142.866 59.0534L146.919 57.7732L151.604 57.4258L155.984 58.0182L160.058 59.5504L162.884 61.4044L166.032 64.506L168.877 68.8599L170.783 72.9083L172.079 79.1489L172.422 83.2089L172.806 92.8938L173.138 95.3914L174.383 94.7571L176.237 91.9307L178.718 89.4122L183.699 86.875L184.947 86.5532L185.243 84.3635L185.446 69.674L193.884 69.6112L193.835 63.0489L194.143 62.4216L194.402 55.2319L195.01 53.0398L195.621 51.1602L186.242 50.6051L185.927 50.2949L185.846 39.3577L186.125 34.9805Z" fill="#FDFDFD"/>
<path d="M182.683 34.3811L185.496 34.3602L186.125 34.9805L186.24 50.2926L195.619 50.8477L195.936 51.4704L195.013 53.3523L194.714 55.2296L194.455 62.4192L194.147 63.0465L193.884 69.6112L185.446 69.674L185.556 84.3611L185.26 86.5509L181.521 88.1413L178.41 90.0395L175.929 92.5581L174.075 95.3844L172.825 95.3938L172.494 92.8961L172.109 83.2112L171.438 76.9661L170.151 71.9755L167.299 66.6841L164.775 63.5778L162.572 61.4067L159.433 59.555L155.986 58.3306L151.606 57.7382L146.921 58.0856L142.868 59.3659L138.514 62.2109L136.343 64.4146L133.874 68.4956L132.034 73.197L131.124 76.9538L130.833 79.7686L130.525 80.3959L126.152 80.741L127.726 82.2918L129.613 83.8403L129.31 85.0926L128.078 87.6018L128.09 89.1643L130.891 87.5809L130.928 92.5807L129.706 96.3399L127.546 100.106L124.757 103.252L122.292 107.958L121.075 112.342L120.485 117.034L120.217 122.974L119.61 125.478L118.358 125.175L116.765 121.125L116.145 121.754L114.923 125.513L114.302 126.143L112.115 126.159L110.242 126.486L111.502 127.726L114.016 129.583L113.104 133.027L112.495 135.219L113.74 134.585L115.291 133.011L116.847 132.062L118.099 132.365L118.414 132.675L118.451 137.675L117.565 144.557L116.692 153.313L116.088 156.131L112.968 156.779L111.093 156.793L112.042 158.348L113.616 159.899L113.945 162.084L113.336 164.276L112.711 164.281L112.718 165.218L114.897 163.952L115.517 163.322L116.454 163.315L116.487 167.69L115.918 175.195L115.68 185.197L49.4317 185.69L31.3048 185.513L31.3002 184.888L31.9252 184.883L32.485 176.129L33.3643 168.309L36.3705 152.349L37.2917 150.155L37.287 149.53L37.5809 147.027L40.0342 140.759L42.4806 133.553L46.788 124.458L48.6397 121.319L52.3291 113.167L56.6504 105.947L60.3608 100.607L64.3812 94.9514L68.0939 89.9236L70.8807 86.4653L72.737 83.9514L76.4613 80.4861L78.945 78.28L83.5974 73.5577L87.0162 71.0322L88.567 69.4581L94.7796 64.4117L97.8882 62.201L103.49 59.0342L107.844 56.1892L114.376 52.0779L120.292 49.2212L127.146 46.3576L129.637 45.089L136.183 42.8527L143.351 40.2992L157.08 37.3844L168.318 35.7382L177.373 34.7332L182.683 34.3811Z" fill="#0973A2"/>
<path d="M345.433 193.173L345.746 193.171L345.799 200.358L344.633 211.617L342.851 224.131L340.426 234.149L337.986 242.293L334.614 251.068L331.232 258.593L327.538 266.121L324.455 271.769L320.449 279.299L317.049 284.325L313.331 288.728L310.545 292.186L309.92 292.191L309.304 293.445L306.515 296.591L303.728 300.049L302.49 301.621L301.865 301.626L301.249 302.88L299.698 304.455L296.587 306.353L292.224 307.948L291.296 309.205L290.067 312.027L288.516 313.601L286.336 314.554L283.537 316.45L281.354 317.092L281.35 316.467L280.722 316.159L281.028 315.219L281.958 314.274L282.583 314.27L282.262 313.022L283.197 312.703L283.815 311.761L286.305 310.492L285.988 309.869L289.101 308.284L290.652 306.71L285.358 309.249L280.685 311.159L276.949 313.062L266.667 317.201L261.369 319.115L253.58 322.299L236.122 328.054L226.766 330.624L215.535 333.207L205.866 335.779L202.746 336.428L200.556 336.131L198.355 334.273L197.718 332.715L197.688 328.653L198.917 325.831L200.468 324.257L204.521 322.976L217.007 321.008L227.615 318.742L235.101 316.811L244.142 313.931L255.676 310.095L260.665 308.495L268.144 305.627L275.618 302.134L280.286 299.599L284.33 297.069L290.552 293.272L297.084 289.161L298.327 288.214L292.406 290.446L283.997 294.259L279.016 296.796L270.919 300.606L264.375 303.155L253.156 307.301L247.545 309.218L240.059 311.149L232.263 313.395L222.904 315.652L214.481 317.59L211.356 317.613L209.15 315.129L208.831 314.194L208.812 311.694L210.356 309.183L213.465 306.972L219.696 304.425L233.098 299.638L239.642 297.089L248.986 292.957L258.326 288.2L260.504 286.934L266.413 283.139L272.946 279.028L278.23 275.239L284.438 269.567L287.857 267.042L292.199 262.634L294.683 260.428L300.886 254.132L303.363 250.988L305.531 248.472L308.015 246.266L313.589 239.349L316.373 235.578L316.681 234.951L313.88 236.535L310.461 239.06L301.131 245.067L297.712 247.593L294.291 249.806L289.321 253.905L285.905 256.743L280.94 261.468L278.771 263.984L275.67 267.133L272.563 269.656L267.594 273.755L262.307 277.232L258.571 279.135L257.323 279.457L252.011 279.497L249.194 278.893L246.367 277.039L244.159 274.242L243.203 271.749L243.502 269.872L247.226 266.407L249.395 263.891L252.804 260.115L254.975 257.911L257.762 254.453L260.241 251.622L262.41 249.106L265.826 246.268L270.789 241.231L272.958 238.714L277.92 233.677L281.325 229.277L286.908 223.61L288.147 222.038L290.63 219.832L293.424 217.311L299.023 213.832L305.87 210.031L310.851 207.494L317.397 205.257L323.633 203.336L332.045 199.836L341.706 196.326L343.572 195.062L345.125 193.801L345.433 193.173Z" fill="#0973A2"/>
<path d="M31.8551 196.958L33.4292 198.509L36.8782 200.046L46.5934 203.724L58.8108 207.695L66.6417 210.137L70.4033 211.672L76.3639 214.752L82.6416 218.456L86.4125 221.24L91.7621 226.2L94.5978 229.304L98.0608 232.716L100.267 235.2L104.989 239.852L107.827 243.269L113.809 249.162L116.644 252.266L119.795 255.68L122.001 258.164L125.783 262.511L130.193 267.165L132.399 269.649L134.916 271.818L135.24 273.378L133.388 276.517L130.284 279.353L127.168 280.626L125.921 280.948L121.546 280.98L117.472 279.448L114.018 277.286L108.048 272.955L102.703 268.62L97.3537 263.66L90.1129 256.526L85.7124 253.121L82.5712 250.957L77.5504 248.182L66.2448 240.766L62.7865 237.979L62.7911 238.604L65.9486 242.956L69.7335 247.615L72.5715 251.032L76.6688 255.689L79.185 257.858L79.1897 258.483L80.4443 259.098L84.8517 263.44L87.368 265.609L91.1435 269.019L94.6018 271.806L96.4931 273.979L99.0093 276.148L103.725 279.863L112.204 285.425L118.167 288.818L123.183 290.968L131.963 294.965L139.803 298.657L148.264 301.719L156.097 304.473L164.56 307.848L168.011 309.697L170.217 312.181L170.534 312.804L170.551 314.991L168.389 318.445L168.079 318.76L163.704 318.792L157.445 317.589L138.033 312.733L132.396 311.213L127.072 309.69L119.239 306.936L106.387 301.719L96.9801 297.414L89.7672 294.03L83.4964 291.264L81.6192 290.965L86.3298 294.055L92.9224 298.069L98.5728 301.464L103.279 303.929L110.492 307.313L118.642 310.69L130.545 314.352L141.195 317.71L151.841 320.443L160.604 322.253L168.424 323.132L173.743 324.03L177.19 325.254L179.074 326.49L180.657 329.291L180.979 330.539L180.998 333.039L179.766 335.548L177.283 337.754L174.156 337.465L166.329 335.648L156.936 333.218L147.545 331.1L134.703 327.133L121.858 322.854L112.768 319.172L106.499 316.718L100.228 313.952L88.9415 309.036L88.3188 309.353L83.6128 306.888L80.1661 305.664L76.3976 303.192L75.1383 301.951L75.1336 301.326L73.879 300.711L73.5596 299.776L72.9346 299.78L72.2979 298.222L71.673 298.227L69.4646 295.431L65.0501 290.151L61.895 286.112L59.0523 282.071L55.2558 275.849L52.7187 270.868L50.1792 265.574L47.6443 260.905L43.5144 251.873L40.9656 245.329L38.088 236.601L35.1941 225.684L33.5712 217.571L32.2444 207.268L31.904 203.521L31.8551 196.958Z" fill="#0973A2"/>
<path d="M149.785 64.9395L152.598 64.9185L156.042 65.8304L159.183 67.9946L161.389 70.4782L163.926 75.4595L164.882 77.9524L165.545 82.9476L165.614 92.3223L166.272 96.6926L168.812 101.986L169.133 103.234L167.263 103.873L168.837 105.424L171.664 107.278L173.245 109.766L175.15 113.814L176.768 121.303L178.697 128.476L182.831 138.133L185.998 143.734L187.889 145.908L189.155 148.086L188.89 154.338L188.593 156.528L187.029 156.227L181.362 150.644L177.26 145.362L175.998 143.809L173.463 139.14L172.838 139.145L171.602 141.029L170.977 141.034L170.982 141.659L168.498 143.865L167.248 143.874L167.195 136.687L168.716 131.05L169.613 125.731L169.581 121.356L168.942 119.486L168.317 119.49L168.338 122.303L167.127 127.625L165.605 132.949L164.7 137.33L164.753 144.518L166.36 150.443L170.511 162.288L170.522 163.85L169.902 164.48L168.986 167.299L169.051 176.049L170.66 182.287L170.685 185.725L168.197 187.306L166.028 189.822L164.176 192.961L161.11 200.796L160.203 204.866L159.962 214.555L159.111 226.124L158.488 226.442L145.051 226.542L140.047 225.954L134.415 225.058L133.783 224.126L132.789 216.633L132.088 206.325L131.757 203.828L131.584 180.703L132.167 175.074L132.753 169.757L133.651 164.437L134.56 160.681L136.419 158.479L137.349 157.535L134.539 157.868L131.713 156.014L130.447 153.836L130.111 150.713L130.717 148.209L131.953 146.325L133.819 145.061L136.316 144.73L139.458 146.894L141.654 148.127L139.742 143.141L138.429 134.713L137.142 129.723L135.86 125.357L134.57 120.054L134.309 126.931L133.138 137.565L131.613 142.577L129.458 146.968L128.854 149.785L128.921 158.847L128.341 164.789L127.746 168.857L126.862 176.051L126.885 179.176L128.492 185.101L128.508 187.289L127.254 186.673L126.305 185.118L125.365 184.812L125.39 188.25L126.666 191.678L127.617 193.546L127.622 194.171L126.37 193.867L123.849 191.074L122.261 187.648L121.622 185.778L121.582 180.465L122.158 173.898L122.714 164.519L124.127 144.508L126.765 121.05L127.961 113.853L129.181 109.782L130.727 107.583L133.528 105.999L134.153 105.995L133.829 104.434L133.201 104.127L133.498 101.937L135.042 99.4253L135.963 97.2308L137.166 90.9717L137.416 82.5321L137.999 76.9026L139.223 73.4559L141.073 70.0045L143.552 67.1735L146.665 65.5877L149.785 64.9395Z" fill="#0F2532"/>
<path d="M258.654 164.444L320.215 163.985L342.717 164.13L343.36 166.626L344.699 178.491L345.028 180.676L345.048 183.488L257.551 184.14L256.924 183.832L257.215 181.018L258.136 178.823L258.377 169.134L258.654 164.444Z" fill="#A92334"/>
<path d="M257.12 126.329L330.868 125.78L332.778 130.453L337.559 142.918L337.883 144.478L337.26 144.795L258.2 145.384L257.486 133.514L257.148 130.079L257.12 126.329Z" fill="#A92334"/>
<path d="M246.212 88.2845L306.835 87.8329L310.305 92.1822L313.777 96.844L317.567 102.128L320.727 106.792L255.103 107.281L254.789 106.971L253.818 102.603L252.212 96.6775L250.936 93.2494L248.101 90.1454L246.216 88.9094L246.212 88.2845Z" fill="#A82434"/>
<path d="M249.251 202.64L303.624 202.235L302.694 203.179L297.713 205.717L292.421 208.569L288.07 211.726L284.653 214.564L281.862 217.398L279.075 220.856L239.701 221.149L239.377 219.589L240.504 203.018L249.251 202.64Z" fill="#A62535"/>
<path d="M257.488 49.7619L261.881 52.2292L269.411 56.2358L275.376 59.9414L280.717 63.6518L285.117 67.0566L287.004 68.6051L287.008 69.2301L277.321 69.3022L230.445 69.3389L230.389 61.8391L230.07 60.9039L229.391 53.7213L228.752 51.851L228.43 50.6033L232.803 50.2583L257.488 49.7619Z" fill="#A92333"/>
<path d="M72.3809 203.957L117.067 203.625L124.569 203.881L126.554 218.554L126.892 221.989L124.082 222.323L97.5198 222.521L95.3161 220.349L91.8461 216L88.0729 212.903L79.5938 207.341L72.698 204.58L72.3809 203.957Z" fill="#A62536"/>
<path d="M210.292 48.8634L213.104 48.8424L216.236 49.7566L216.551 50.0668L221.239 50.0319L221.556 50.6546L218.16 56.305L220.959 54.4091L222.206 54.0873L223.165 56.8927L223.181 59.0802L222.582 62.5222L222.596 64.3972L223.54 65.3277L223.563 68.4526L222.647 71.272L221.406 72.5313L220.499 76.6006L219.888 78.4802L219.927 83.7926L217.759 86.3088L214.963 88.5172L214.027 88.8367L210.902 88.86L207.449 86.6981L205.245 84.527L204.928 83.9043L204.259 77.9716L202.974 73.2936L200.758 69.56L200.726 65.1851L201.656 64.2406L201.638 61.7407L201.302 58.6181L202.207 54.2363L203.13 52.3543L205.304 50.4631L208.732 49.1875L210.292 48.8634Z" fill="#0F2532"/>
<path d="M213.816 186.341L214.443 186.649L214.8 192.584L215.46 197.267L216.467 206.634L217.869 226.937L218.263 237.872L219.232 284.116L219.283 290.991L217.098 291.319L210.533 291.056L209.867 285.436L210.174 284.808L210.301 259.807L210.805 243.552L210.947 220.738L211.192 211.674L212.33 196.665L212.902 189.473L213.816 186.341Z" fill="#FEFEFE"/>
<path d="M99.1532 315.949L101.033 316.56L106.993 319.64L115.144 323.017L122.667 326.086L136.451 330.671L147.095 333.092L158.993 336.128L163.064 337.348L164.009 338.279L161.84 340.795L160.287 342.056L158.417 342.695L155.602 342.404L143.394 339.682L134.625 337.247L117.394 331.438L112.38 329.6L107.991 327.758L107.996 328.383L106.429 327.77L105.487 327.152L104.848 325.281L104.211 323.724L102.332 323.113L97.9335 320.02L96.6719 318.467L96.3524 317.532L96.9728 316.902L98.85 317.201L99.4727 316.884L100.098 316.879L99.1532 315.949Z" fill="#0973A1"/>
<path d="M269.183 319.37L269.813 319.99L271.69 320.289L274.19 320.27L274.202 321.832L272.653 323.719L272.346 324.346L271.721 324.351L272.04 325.286L271.103 325.293L271.107 325.918L272.042 325.599L272.047 326.224L262.075 330.048L237.761 338.354L225.598 341.57L223.412 341.899L219.038 341.931L216.209 339.765L214.632 337.902L215.563 336.957L222.109 334.721L233.96 331.507L239.576 330.216L248.617 327.336L258.591 323.824L266.068 320.643L269.183 319.37Z" fill="#0972A0"/>
<path d="M179.892 163.155L184.892 163.118L189.904 164.643L191.476 165.882L192.432 168.375L192.457 171.812L192.159 173.689L192.791 174.622L192.497 177.124L190.953 179.636L189.414 182.773L187.551 184.349L187.247 185.601L187.882 186.847L187.585 189.036L185.097 190.617L182.287 190.951L179.15 189.412L178.519 188.479L178.505 186.604L179.12 185.349L176.278 181.308L175.007 178.505L173.738 176.014L173.729 174.764L174.969 173.505L174.328 171.322L174.617 168.195L176.157 165.058L177.712 164.109L179.892 163.155Z" fill="#0F2532"/>
<path d="M261.085 239.115L262.025 239.421L260.167 241.622L256.757 245.398L256.132 245.402L255.827 246.342L255.202 246.347L255.206 246.972L252.41 249.18L248.38 253.585L245.594 257.044L244.355 258.616L241.244 260.514L239.374 261.153L239.325 254.59L239.838 239.586L261.085 239.115Z" fill="#A42536"/>
<path d="M145.333 96.536L145.645 96.5337L146.636 103.714L148.863 109.01L151.403 114.304L151.407 114.929L152.345 114.922L152.958 113.355L155.722 106.771L156.939 102.387L157.212 97.0726L157.52 96.4453L158.772 96.7485L161.295 99.8547L164.763 103.892L167.293 107.935L167.928 109.181L167.627 110.745L166.062 110.445L161.356 107.98L160.108 108.301L158.252 110.815L156.09 114.269L153.313 118.977L152.084 121.799L151.452 120.866L150.496 118.373L147.653 114.332L143.229 107.802L142.289 107.497L138.243 109.714L136.378 110.978L135.125 110.675L135.732 108.17L137.273 105.346L140.683 101.571L143.164 99.0523L144.71 96.8532L145.333 96.536Z" fill="#FEFEFE"/>
<path d="M182.979 241.885L183.604 241.88L183.928 243.44L184.6 249.685L184.933 252.495L186.003 270.3L186.416 283.735L187.062 286.543L186.784 291.233L186.474 291.548L180.539 291.904L180.224 291.594L179.867 285.659L180.175 285.032L180.686 269.715L181.216 256.898L182.363 243.139L182.979 241.885Z" fill="#FEFEFE"/>
<path d="M211.861 91.6654L213.736 91.6514L215.942 94.1351L215.636 95.0749L214.396 96.3341L215.389 103.827L216.054 109.135L216.156 122.884L214.64 129.146L213.101 132.282L212.476 132.287L209.897 121.681L209.221 114.811L210.06 101.679L210.963 96.9847L210.956 96.0473L209.701 95.4316L209.69 93.8691L210.928 92.2974L211.861 91.6654Z" fill="#0F2735"/>
<path d="M129.214 240.098L132.027 240.077L132.341 240.387L134.305 252.247L135.298 259.74L134.361 259.747L131.534 257.893L129.33 255.722L127.124 253.239L124.289 250.135L119.569 245.795L117.363 243.311L115.159 241.14L115.154 240.515L129.214 240.098Z" fill="#A52536"/>
<path d="M185.929 50.6074L191.867 50.5632L195.619 50.8477L195.936 51.4704L195.013 53.3523L194.714 55.2296L194.455 62.4192L194.147 63.0465L193.884 69.6112L188.259 69.6531L185.756 69.3592L185.428 67.1741L185.386 61.5493L185.619 50.9222L185.929 50.6074Z" fill="#A02434"/>
<path d="M336.449 245.742L336.769 246.677L334.318 253.258L326.622 268.941L323.537 274.276L321.69 278.04L319.22 282.121L316.435 285.892L313.959 289.035L311.788 291.239L308.693 295.325L308.068 295.329L307.452 296.584L304.353 300.045L301.566 303.503L299.087 306.334L295.981 308.857L295.356 308.862L295.361 309.487L292.564 311.695L288.84 315.161L286.974 316.425L283.868 318.948L278.894 322.423L275.473 324.636L273.607 325.9L271.107 325.918L271.103 325.293L271.725 324.976L271.721 324.351L272.346 324.346L272.959 322.779L273.889 321.835L274.19 320.27L272.943 320.592L270.13 320.613L269.503 320.305L269.496 319.367L277.28 315.559L280.391 313.661L285.055 310.501L286.615 310.177L285.685 311.122L283.817 312.073L282.886 313.018L282.583 314.27L281.958 314.274L281.653 315.214L281.028 315.219L281.35 316.467L281.664 316.777L284.157 315.821L287.266 313.61L288.824 312.973L290.064 311.714L291.291 308.58L292.844 307.318L296.585 306.04L299.696 304.142L300.321 304.137L300.937 302.883L301.865 301.626L302.49 301.621L303.105 300.367L305.894 297.221L308.681 293.762L309.92 292.191L310.545 292.186L311.16 290.931L314.26 287.471L317.664 283.07L320.444 278.674L325.066 269.89L328.765 262.987L332.459 255.459L335.528 247.936L336.449 245.742Z" fill="#0E364B"/>
<path d="M242.188 177.379L249.375 177.326L250.002 177.634L250.324 178.881L250.347 182.006L249.753 186.073L247.595 190.152L244.806 193.298L241.073 195.513L239.51 195.525L239.809 193.648L242.6 190.814L243.519 188.307L243.806 184.868L243.484 183.62L242.861 183.937L241.644 188.321L240.716 189.578L239.466 189.588L239.429 184.588L240.641 179.578L242.188 177.379Z" fill="#0F2937"/>
<path d="M71.8385 298.964L72.4634 298.959L74.6695 301.443L77.4982 303.61L79.695 304.843L83.769 306.375L88.475 308.84L92.8708 311.62L96.3268 314.095L99.1509 315.636L100.41 316.877L100.102 317.504L99.1649 317.511L96.9751 317.215L96.6673 317.842L97.9312 319.708L102.329 322.8L104.211 323.724L105.475 325.589L105.485 326.839L103.92 326.538L99.8364 323.756L94.8086 320.044L92.2924 317.875L90.7183 316.324L86.3178 312.919L83.8039 311.063L83.7992 310.438L82.547 310.135L78.1441 306.417L76.2576 304.869L73.4195 301.452L71.8431 299.589L71.8385 298.964Z" fill="#0E374C"/>
<path d="M165.865 209.824L169.302 209.798L170.554 210.101L170.27 213.854L168.472 224.18L168.178 226.682L168.21 231.057L169.796 234.17L170.127 236.668L169.19 236.675L167.618 235.436L168.266 238.557L168.278 240.119L167.026 239.816L164.815 236.707L164.16 232.65L164.388 221.398L164.661 216.083L165.865 209.824Z" fill="#0F2A38"/>
<path d="M198.357 208.644L199.919 208.633L200.868 210.188L201.855 216.743L202.207 222.053L202.26 229.241L201.992 235.18L200.761 237.69L198.897 239.266L197.96 239.273L198.261 237.708L198.865 234.891L197.927 234.898L197.622 235.838L196.997 235.843L196.981 233.655L198.212 231.146L198.522 230.831L198.496 227.394L197.848 224.273L197.174 217.716L196.188 211.16L195.866 209.913L198.357 208.644Z" fill="#0F2937"/>
<path d="M149.785 64.9395L152.598 64.9185L151.665 65.5505L154.172 66.4694L153.864 67.0967L152.304 67.4208L152.936 68.3536L152.632 69.6059L148.579 70.8861L146.091 72.4672L143.922 74.9834L142.075 78.7473L139.626 85.6407L138.689 85.6477L138.374 85.3375L138.064 85.6524L137.779 89.4046L137.467 89.4069L137.416 82.5321L137.999 76.9026L139.223 73.4559L141.073 70.0045L143.552 67.1735L146.665 65.5877L149.785 64.9395Z" fill="#0F2C3C"/>
<path d="M132.757 44.4408L133.697 44.7463L134.977 48.7994L136.857 49.4104L139.984 49.6996L139.368 50.9542L136.891 54.0977L137.22 56.2829L137.551 58.7805L135.987 58.4796L133.473 56.6233L131.91 56.6349L129.427 58.841L128.174 58.5378L128.781 56.0332L129.082 54.4684L127.19 52.2949L125.931 51.0543L125.922 49.8043L130.297 49.7717L131.537 48.5125L132.757 44.4408Z" fill="#FEFEFE"/>
<path d="M100.084 105.311L101.024 105.616L102.624 110.605L102.629 111.23L103.876 110.908L107.314 110.882L107.631 111.505L106.08 113.079L104.527 114.34L104.231 116.53L105.187 119.023L104.886 120.588L103.316 119.662L101.115 117.803L99.24 117.817L96.7564 120.023L95.8189 120.03L96.1128 117.528L96.7261 115.961L96.7145 114.399L93.5733 112.234L93.5663 111.297L94.189 110.98L97.9389 110.952L99.7766 105.938L100.084 105.311Z" fill="#FEFEFE"/>
<path d="M83.7254 90.7447L84.9801 91.3604L86.2603 95.4135L90.95 95.6911L90.6491 97.2558L87.853 99.4642L88.1841 101.962L89.1379 104.142L88.8347 105.395L87.5801 104.779L84.749 102.3L83.1889 102.624L80.7029 104.518L79.1405 104.529L79.439 102.652L80.6704 100.143L80.3486 98.8951L77.2074 96.7309L77.5129 95.7911L82.1979 95.4437L82.8019 92.6267L83.7254 90.7447Z" fill="#FEFEFE"/>
<path d="M164.636 44.8283L165.89 45.444L166.853 48.8744L166.858 49.4994L169.983 49.4761L171.235 49.7793L170.932 51.0316L168.756 52.6104L168.458 54.4876L169.416 57.2931L169.428 58.8555L168.176 58.5524L164.719 56.078L163.159 56.4022L160.986 58.2934L160.048 58.3004L160.032 56.1129L160.951 53.606L160.629 52.3584L157.803 50.5044L158.108 49.5646L162.789 48.5922L164.636 44.8283Z" fill="#FEFEFE"/>
<path d="M99.5508 75.6264L100.491 75.932L102.086 80.2952L102.4 80.6054L106.463 80.5751L106.472 81.8251L103.989 84.0311L104.32 86.5287L104.959 88.399L104.658 89.9638L103.091 89.3505L100.572 86.8692L99.0119 87.1933L95.9056 89.7165L94.9658 89.411L95.2643 87.5337L96.1809 84.7143L95.8567 83.1542L93.0304 81.3002L94.2757 80.6659L97.7107 80.3278L98.6296 77.8209L99.5508 75.6264Z" fill="#FEFEFE"/>
<path d="M67.9048 106.488L69.1571 106.791L70.4373 110.844L70.7521 111.154L75.1293 111.434L74.8261 112.687L72.9628 114.263L72.3402 114.58L72.3681 118.33L73.0047 119.888L73.0163 121.45L71.4423 119.9L69.8658 118.036L67.9886 117.738L65.5026 119.631L63.63 119.958L63.3105 119.023L64.8497 115.886L65.1529 114.634L63.8982 114.018L61.6968 112.159L62.6273 111.215L66.0624 110.877L67.9048 106.488Z" fill="#FEFEFE"/>
<path d="M115.374 60.1957L116.314 60.5012L117.589 63.9293L118.221 64.8621L122.284 64.8318L122.918 66.0771L120.124 68.598L120.453 70.7831L120.772 71.7183L120.793 74.5307L119.541 74.2275L116.397 71.7509L115.15 72.0727L113.286 73.6491L111.724 73.6607L112.016 70.846L112.624 68.6539L111.363 67.1007L110.106 66.1726L110.411 65.2328L113.846 64.8947L114.46 63.3276L114.753 60.8253L115.374 60.1957Z" fill="#FEFEFE"/>
<path d="M84.2707 121.992L85.2105 122.297L87.1157 126.345L91.1781 126.315L91.4999 127.563L89.0139 129.456L88.3936 130.086L88.7247 132.584L89.373 135.704L88.123 135.713L86.5466 133.85L84.9771 132.924L83.417 133.248L80.9334 135.454L79.6811 135.151L80.9054 131.704L81.2016 129.515L79.6345 128.901L78.0628 127.663L78.366 126.411L81.8034 126.385L82.426 126.068L84.2707 121.992Z" fill="#FEFEFE"/>
<path d="M115.91 90.1925L116.85 90.498L118.438 93.9238L118.759 95.1714L122.512 95.456L122.829 96.0786L120.662 98.9073L120.352 99.2222L120.681 101.407L120.996 101.717L121.007 103.28L119.76 103.602L116.621 101.75L115.065 102.699L112.89 104.278L111.95 103.972L112.857 99.903L112.533 98.3429L110.021 96.799L110.324 95.5468L114.699 95.5142L115.296 91.7596L115.91 90.1925Z" fill="#FEFEFE"/>
<path d="M100.623 135.62L101.25 135.928L102.852 141.229L107.542 141.506L107.551 142.756L104.753 144.652L104.769 146.84L105.405 148.397L105.419 150.272L103.852 149.659L101.651 147.8L100.086 147.499L97.6025 149.706L96.3595 150.652L96.04 149.717L96.9566 146.898L96.9403 144.71L94.424 142.541L94.4171 141.604L98.1646 141.264L99.0928 140.007L100.312 135.935L100.623 135.62Z" fill="#FEFEFE"/>
<path d="M84.4918 151.678L85.4316 151.984L87.3415 156.657L88.9063 156.958L90.7812 156.944L91.4085 157.252L91.1053 158.504L88.6217 160.71L88.9505 162.895L89.5871 164.453L89.5964 165.703L88.0316 165.402L87.7122 164.467L86.4575 163.851L84.5803 163.553L82.0896 164.821L81.4693 165.451L80.217 165.148L81.1312 162.016L81.1126 159.516L79.858 158.9L78.5987 157.66L78.594 157.035L82.0291 156.697L83.2674 155.125L84.4918 151.678Z" fill="#FEFEFE"/>
<path d="M52.62 152.228L53.245 152.223L54.5252 156.277L55.1572 157.209L58.9071 157.181L59.5344 157.489L59.2312 158.742L56.4351 160.95L56.1319 162.202L57.4051 165.318L57.4145 166.568L55.8473 165.954L53.3311 163.786L51.7687 163.797L49.5952 165.689L48.3452 165.698L48.6414 163.508L49.2455 160.691L47.9839 159.138L46.4098 157.587L46.7176 156.96L49.53 156.939L50.7777 156.617L51.6942 153.798L52.62 152.228Z" fill="#FEFEFE"/>
<path d="M68.4454 137.11L69.3852 137.415L70.9779 141.466L71.2927 141.776L75.0449 142.061L74.7441 143.626L72.5683 145.204L72.5939 148.642L73.2305 150.2L73.2375 151.137L71.6704 150.524L70.7236 149.281L70.7189 148.656L69.4643 148.04L67.9018 148.052L66.0385 149.628L64.7979 150.887L64.1706 150.58L64.4668 148.39L65.0801 146.823L65.0685 145.26L62.2374 142.781L62.2304 141.844L65.0429 141.823L66.2952 142.126L66.9085 140.559L68.4454 137.11Z" fill="#FEFEFE"/>
<path d="M52.0818 121.919L52.7067 121.914L54.2995 125.965L56.1791 126.576L58.679 126.557L59.3063 126.865L58.6906 128.12L55.8922 130.016L56.221 132.201L57.1771 134.694L57.1887 136.256L55.9341 135.64L53.4155 133.159L51.2304 133.488L49.0593 135.692L47.4968 135.703L48.4133 132.884L49.6423 130.062L48.3877 129.447L46.8113 127.583L47.4293 126.641L50.5542 126.618L51.1559 123.488L52.0818 121.919Z" fill="#FEFEFE"/>
<path d="M156.453 37.0766L159.265 37.0556L159.267 37.3681L147.722 39.6417L142.731 40.9289L134.315 43.8041L128.081 46.0381L124.968 47.6239L116.869 51.1218L112.2 53.6566L102.869 59.6638L102.242 59.356L103.483 58.0967L104.108 58.092L104.103 57.467L109.702 53.9877L112.813 52.0895L114.989 50.5108L120.598 48.2814L123.081 46.0754L127.127 43.8577L132.118 42.5705L134.609 41.3019L140.532 39.3827L145.527 38.7205L149.275 38.3801L153.955 37.4077L156.453 37.0766Z" fill="#0F3549"/>
<path d="M149.801 67.1269L151.679 67.4255L152.936 68.3536L152.632 69.6059L148.579 70.8861L146.091 72.4672L143.922 74.9834L142.075 78.7473L139.626 85.6407L138.689 85.6477L139.277 80.6432L140.494 76.259L142.649 71.8678L145.44 69.0345L148.554 67.4487L149.801 67.1269Z" fill="#FEFEFE"/>
<path d="M210.174 326.684L212.049 326.671L212.998 328.226L213.331 331.036L210.526 331.995L203.975 333.606L203.031 332.675L202.075 330.182L202.378 328.93L210.174 326.684Z" fill="#FEFEFE"/>
<path d="M166.737 327.008L169.24 327.302L175.816 329.128L176.76 330.058L176.154 332.563L175.226 333.82L173.036 333.524L166.46 331.698L165.518 331.08L165.812 328.577L166.737 327.008Z" fill="#FEFEFE"/>
<path d="M155.665 308.965L158.48 309.257L160.672 309.865L164.114 310.465L164.744 311.085L164.452 313.9L163.529 315.782L161.339 315.485L155.7 313.652L154.753 312.409L154.739 310.534L155.665 308.965Z" fill="#FEFEFE"/>
<path d="M115.935 261.447L116.255 262.382L115.331 264.264L115.655 265.824L117.861 268.308L121.007 271.097L123.204 272.331L125.394 272.627L127.894 272.608L128.213 273.543L125.412 275.127L122.6 275.148L119.459 272.984L115.056 269.266L112.528 265.535L112.831 264.283L115.935 261.447Z" fill="#FEFEFE"/>
<path d="M219.731 309.113L221.606 309.099L223.49 310.335L223.506 312.522L221.951 313.471L215.715 315.393L214.465 315.402L213.511 313.222L213.492 310.722L214.425 310.09L219.731 309.113Z" fill="#FEFEFE"/>
<path d="M262.829 263.478L264.394 263.779L264.716 265.027L262.864 268.165L260.381 270.371L258.832 272.258L255.409 274.159L253.849 274.483L251.349 274.501L249.467 273.578L248.208 272.337L248.203 271.712L250.08 272.011L253.83 271.983L257.253 270.082L261.288 266.302L262.829 263.478Z" fill="#FEFEFE"/>
<path d="M204.877 35.1534L210.819 35.7341L213.009 36.0303L215.201 36.639L217.703 36.9329L217.708 37.5579L218.648 37.8634L219.289 40.0461L218.979 40.361L210.229 40.4261L209.602 40.1183L209.595 39.1808L208.655 38.8753L208.016 37.005L207.699 36.3824L204.882 35.7783L204.877 35.1534Z" fill="#AB2433"/>
<path d="M239.194 278.967L241.396 280.826L244.532 282.365L249.229 283.58L249.858 284.2L247.365 285.156L241.752 286.761L240.187 286.46L239.241 285.217L238.599 283.034L238.581 280.534L239.194 278.967Z" fill="#9F2739"/>
<path d="M336.449 245.742L336.769 246.677L334.318 253.258L326.622 268.941L323.537 274.276L321.69 278.04L319.22 282.121L316.435 285.892L313.959 289.035L311.788 291.239L308.693 295.325L308.068 295.329L307.452 296.584L304.353 300.045L302.494 302.246L301.869 302.251L301.865 301.626L302.49 301.621L303.105 300.367L305.894 297.221L308.681 293.762L309.92 292.191L310.545 292.186L311.16 290.931L314.26 287.471L317.664 283.07L320.444 278.674L325.066 269.89L328.765 262.987L332.459 255.459L335.528 247.936L336.449 245.742Z" fill="#0F3549"/>
<path d="M40.0459 142.321L43.4879 142.921L43.4973 144.171L40.6965 145.754L40.4026 148.256L41.361 151.062L41.368 151.999L40.1134 151.384L37.287 149.53L37.5809 147.027L39.4232 142.639L40.0459 142.321Z" fill="#FEFEFE"/>
<path d="M135.776 281.925L136.405 282.545L135.197 288.179L132.695 287.885L128.938 286.976L127.369 286.05L127.364 285.425L131.732 284.455L134.223 283.186L135.776 281.925Z" fill="#9B293B"/>
<path d="M193.144 96.1799L196.894 96.152L196.901 97.0895L195.343 97.7261L196.301 100.532L198.855 107.7L198.878 110.825L198.251 110.517L195.38 102.726L193.47 98.0526L193.156 97.7424L193.144 96.1799Z" fill="#FEFEFE"/>
<path d="M149.785 64.9395L152.598 64.9185L151.665 65.5505L154.172 66.4694L153.864 67.0967L152.304 67.4208L151.681 67.7379L149.804 67.4394L148.244 67.7635L147.926 67.1409L144.186 68.4188L141.695 69.6874L142.311 68.4327L144.484 66.5415L147.6 65.2683L149.785 64.9395Z" fill="#0E3C54"/>
<path d="M228.141 95.6068L230.33 95.903L232.21 96.514L231.599 98.3936L228.833 104.664L226.678 109.056L226.359 108.12L228.194 102.794L229.729 99.0325L229.719 97.7826L227.84 97.1715L227.831 95.9216L228.141 95.6068Z" fill="#FEFEFE"/>
<path d="M232.947 111.509L234.512 111.81L234.208 113.062L233.586 113.379L230.151 113.717L225.463 113.752L225.764 112.187L226.074 111.873L232.947 111.509Z" fill="#FEFEFE"/>
<path d="M342.837 222.256L343.15 222.254L342.874 227.256L342.277 231.01L340.134 236.964L339.53 239.781L338.607 241.663L337.385 245.422L336.762 245.739L337.366 242.922L339.504 236.344L341.631 228.203L342.837 222.256Z" fill="#0F3549"/>
<path d="M345.729 190.984L346.042 190.981L346.063 193.794L347.317 194.409L347.651 197.219L346.417 199.416L346.123 201.918L346.142 204.418L345.239 209.113L344.927 209.115L345.197 203.488L345.487 200.361L345.729 190.984Z" fill="#0F3549"/>
<path d="M153.866 67.4092L156.373 68.328L157.947 69.8789L159.519 71.1172L161.73 74.2258L162.364 75.4711L162.061 76.7234L159.223 73.3069L156.07 69.5803L154.815 68.9647L152.94 68.9786L152.621 68.0435L153.866 67.4092Z" fill="#0B719E"/>
<path d="M134.116 100.995L135.37 101.61L135.074 103.8L134.449 103.805L134.454 104.43L136.951 104.099L136.961 105.349L136.66 106.913L135.732 108.17L135.41 106.923L133.845 106.622L133.829 104.434L133.201 104.127L133.498 101.937L134.116 100.995Z" fill="#0E354A"/>
<path d="M87.3264 70.7173L87.9514 70.7127L88.5926 72.8955L88.6066 74.7704L87.0418 74.4696L84.8474 73.5484L85.4631 72.2938L87.3264 70.7173Z" fill="#FEFEFE"/>
<path d="M210.292 48.8634L213.104 48.8424L216.236 49.7566L217.491 50.3723L217.498 51.3098L215.625 51.6362L214.056 50.7104L213.111 49.7799L209.987 49.8032L210.292 48.8634Z" fill="#0D3F57"/>
<path d="M77.6973 78.6018L78.0168 79.537L74.9129 82.3726L72.4292 84.5787L71.8019 84.2709L73.9661 81.1297L76.7622 78.9213L77.6973 78.6018Z" fill="#0F3549"/>
<path d="M32.7532 170.189L33.3829 170.809L32.5059 178.941L32.2283 183.631L31.9252 184.883L31.3002 184.888L31.5778 180.198L32.7532 170.189Z" fill="#0F3549"/>
<path d="M71.1909 86.1504L71.8159 86.1458L72.772 88.6387L72.7859 90.5137L71.2188 89.9003L69.9619 88.9722L70.2627 87.4074L71.1909 86.1504Z" fill="#FEFEFE"/>
<path d="M68.3971 88.6713L69.3369 88.9768L67.1681 91.4931L64.3836 95.2639L64.3766 94.3264L66.2236 90.5626L68.3971 88.6713Z" fill="#0F3549"/>
<path d="M134.116 100.995L135.37 101.61L135.074 103.8L134.449 103.805L134.773 105.365L134.148 105.37L133.829 104.434L133.201 104.127L133.498 101.937L134.116 100.995Z" fill="#0E3C54"/>
<path d="M137.717 80.9673L138.346 81.5877L138.36 83.4626L138.985 83.458L138.992 84.3954L138.372 85.0251L138.064 85.6524L137.779 89.4046L137.467 89.4069L137.416 82.5321L137.717 80.9673Z" fill="#0C4F6E"/>
<path d="M63.7586 95.2686L63.7656 96.206L59.7451 101.861L58.5068 103.433L58.8099 102.181L60.3514 99.3566L60.9764 99.3519L61.2796 98.0996L63.7586 95.2686Z" fill="#0F3549"/>
<path d="M127.541 183.233L128.168 183.541L128.492 185.101L128.508 187.289L127.254 186.673L126.305 185.118L127.237 184.486L127.23 183.548L127.541 183.233Z" fill="#0D3F57"/>
<path d="M140.416 149.699L141.356 150.005L141.053 151.257L137.301 150.972L136.673 150.665L136.669 150.04L140.416 149.699Z" fill="#FEFEFE"/>
<path d="M179.892 163.155L182.392 163.137L183.027 164.382L178.964 164.412L179.27 163.473L179.892 163.155Z" fill="#6690A3"/>
<path d="M82.035 73.5693L83.2849 73.56L82.6693 74.8146L80.4981 77.0184L79.8685 76.3981L82.035 73.5693Z" fill="#0F3549"/>
<path d="M135.764 154.421L140.139 154.389L139.835 155.641L137.958 155.343L135.766 154.734L135.764 154.421Z" fill="#FEFEFE"/>
<path d="M169.309 210.736L170.561 211.039L170.27 213.854L169.649 214.483L169.328 213.236L169.309 210.736Z" fill="#0D4058"/>
<path d="M182.392 163.137L184.892 163.118L185.522 163.739L183.652 164.378L182.397 163.762L182.392 163.137Z" fill="#0F2F40"/>
<path d="M131.35 107.265L131.977 107.573L131.364 109.14L130.116 109.462L129.808 110.09L129.799 108.84L131.35 107.265Z" fill="#0E3F57"/>
<path d="M195.341 97.4136L196.278 97.4066L196.607 99.5917L195.67 99.5987L195.031 97.7284L195.341 97.4136Z" fill="#0D445F"/>
</g>
<defs>
<clipPath id="clip0_1_98">
<rect width="336" height="343" fill="white" transform="translate(19.8551 15.8551)"/>
</clipPath>
</defs>
</svg>
